<?xml version="1.0" encoding="utf-8"?>
<!-- Generator: Adobe Illustrator 19.2.1, SVG Export Plug-In . SVG Version: 6.00 Build 0)  -->
<svg version="1.1" id="Layer_1" xmlns="http://www.w3.org/2000/svg" xmlns:xlink="http://www.w3.org/1999/xlink" x="0px" y="0px"
	 viewBox="0 0 360 360" style="enable-background:new 0 0 360 360;" xml:space="preserve">
<style type="text/css">
	.st0{fill:#FFFFFF;stroke:#000000;stroke-width:3;stroke-miterlimit:10;}
	.st1{fill:#010101;}
	.st2{fill:#378DBE;}
	.st3{fill:#FFFFFF;}
</style>
<circle class="st0" cx="180" cy="180" r="180"/>
<g>
	<path class="st1" d="M755,330.9c0,2.3-1.9,4.1-4.1,4.1h-37.7c-2.3,0-4.1-1.9-4.1-4.1v-9.7c0-2.3,1.9-4.1,4.1-4.1h37.7
		c2.3,0,4.1,1.9,4.1,4.1V330.9z"/>
</g>
<g>
	<path class="st2" d="M755,327.9c0,2.3-1.9,4.1-4.1,4.1h-37.7c-2.3,0-4.1-1.9-4.1-4.1v-9.7c0-2.3,1.9-4.1,4.1-4.1h37.7
		c2.3,0,4.1,1.9,4.1,4.1V327.9z"/>
</g>
<g>
	
		<text transform="matrix(1 0 0 1 713.8389 326.9995)" class="st3" style="font-family:'OpenSans-CondensedBold'; font-size:11.421px;">Details</text>
</g>
</svg>
